<svg xmlns="http://www.w3.org/2000/svg" viewBox="0 0 4000 4000"><g stroke="#fff" stroke-miterlimit="10" stroke-width=".25"><path d="M3644.02 1991.61c0 931.61-755.22 1686.82-1686.82 1686.82-2237.53-88.85-2236.9-3285.13.01-3373.64 931.59 0 1686.81 755.22 1686.81 1686.82Z" fill="#51c1b5"/><path d="M3622.11 1991.61c0 919.51-745.41 1664.91-1664.91 1664.91-2208.48-87.7-2207.85-3242.47.01-3329.83 919.49 0 1664.9 745.41 1664.9 1664.92Z" fill="#fff"/><path d="M520.39 1581.12c0 92.8-75.23 168.03-168.03 168.03-222.88-8.85-222.82-327.23 0-336.05 92.8 0 168.02 75.23 168.02 168.03ZM938.5 2998.61c0 146.72-118.94 265.67-265.67 265.67-352.4-13.99-352.3-517.4 0-531.34 146.72 0 265.67 118.94 265.67 265.67Zm1046.01 620.76c0 92.8-75.23 168.03-168.03 168.03-222.88-8.85-222.82-327.23 0-336.05 92.8 0 168.02 75.23 168.02 168.03Zm1830.72-1919.61c0 146.72-118.94 265.67-265.67 265.67-352.4-13.99-352.3-517.4 0-531.34 146.72 0 265.67 118.94 265.67 265.67ZM1550.81 478.27c0 146.72-118.94 265.67-265.67 265.67-352.4-13.99-352.3-517.4 0-531.34 146.72 0 265.67 118.94 265.67 265.67Zm1768.02 2656.38c0 92.8-75.23 168.03-168.03 168.03-222.88-8.85-222.82-327.23 0-336.05 92.8 0 168.02 75.23 168.02 168.03ZM2969.57 592.37c0 92.8-75.23 168.03-168.03 168.03-222.88-8.85-222.82-327.23 0-336.05 92.8 0 168.02 75.23 168.02 168.03Z" fill="#56bf92"/></g><g fill="#56bf92"><path d="m1592.36 1130.67 29.78-52.35c32.85 35.67 100.24 32.29 100.86-28.34v-214.2h68.2v215.16c0 75.88-47.07 110.94-112.86 110.94-32.18 0-62.92-8.64-85.97-31.22Zm283.84-19.69 36.98-51.87c22.57 23.53 57.63 43.22 101.82 43.22 37.46 0 55.71-17.29 55.71-35.54 0-56.67-184.43-17.77-184.43-138.32 0-53.31 46.11-97.5 121.51-97.5 50.91 0 93.17 15.37 124.87 44.67l-37.94 49.95c-25.93-24.01-60.51-35.06-93.17-35.06-29.3 0-45.63 12.97-45.63 32.18 0 50.91 183.95 16.81 183.95 136.4 0 58.59-41.78 102.78-128.23 102.78-61.48 0-105.66-20.65-135.44-50.91Zm559.66 1895.54H2249.6c-13.49 0-26.24-5.8-38.26-17.43-12.05-11.59-20.94-28.2-26.72-49.79l-158.83-532.81c-5.78-21.55-14.69-38.16-26.72-49.79-12.04-11.59-24.79-17.43-38.26-17.43h-184.82v667.25h-209.37v-963.53h476.5c21.16 0 41.15-4.98 59.92-14.94 18.77-9.96 35.38-24.9 49.81-44.82 14.44-19.92 25.99-44.39 34.65-73.45 17.33-55.76 17.33-145.87 0-201.67-8.66-29.02-20.21-53.53-34.65-73.45-14.44-19.92-31.04-34.86-49.81-44.82-18.77-9.96-38.76-14.94-59.92-14.94h-404.3c-48.79-1.22-73.48-77.54-72.2-124.49v-186.73h495.27c47.15 0 91.92 12.06 134.29 36.1 42.35 24.08 79.41 58.94 111.18 104.57 31.77 45.67 56.79 102.08 75.08 169.3 42.18 152.27 37.62 382.1-26.71 524.09-36.1 84.65-83.02 148.57-140.78 191.71l220.92 717.05Z"/><path d="m1843.29 1709.91 7.6 23.59 18.33-5.91 18.42-5.93-43.98 85.78-43.98 85.78-61.43-31.49-61.55-31.55-55.05 107.38-55.05 107.38 21.6 11.07 21.6 11.07 43.98-85.78 43.98-85.78 60.95 31.25c33.47 17.16 61.28 31.04 61.74 30.89.45-.15 25.63-48.52 55.77-107.31l54.93-107.14 5.93 18.42 5.91 18.33 23.14-7.45 23.14-7.45-18.71-58.07-18.71-58.07-58.07 18.71-58.07 18.71 7.6 23.59Z"/></g></svg>